<?xml version="1.0" standalone="no"?>
<!DOCTYPE svg PUBLIC "-//W3C//DTD SVG 20010904//EN"
 "http://www.w3.org/TR/2001/REC-SVG-20010904/DTD/svg10.dtd">
<svg version="1.0" xmlns="http://www.w3.org/2000/svg"
 width="200.000000pt" height="200.000000pt" viewBox="0 0 200.000000 200.000000"
 preserveAspectRatio="xMidYMid meet">

<g transform="translate(0.000000,200.000000) scale(0.100000,-0.100000)"
fill="#000000" stroke="none">
<path d="M864 1066 c21 -20 39 -36 40 -36 2 0 0 15 -2 32 -4 25 -7 28 -11 15
-6 -17 -8 -17 -36 3 -20 15 -17 10 9 -14z"/>
<path d="M1110 1080 c-50 -40 -64 -50 -71 -50 -4 0 -9 -6 -12 -12 -3 -9 8 -13
37 -14 23 -1 29 0 14 3 -25 4 -41 23 -19 23 5 0 26 16 47 35 42 37 44 47 4 15z"/>
<path d="M932 1063 c-1 -12 -4 -27 -7 -35 -3 -7 10 -22 29 -35 32 -21 35 -21
48 -5 11 15 11 15 -2 5 -23 -18 -58 14 -63 57 -2 19 -5 25 -5 13z"/>
<path d="M1031 1064 c0 -11 3 -14 6 -6 3 7 2 16 -1 19 -3 4 -6 -2 -5 -13z"/>
<path d="M848 1033 c7 -3 16 -2 19 1 4 3 -2 6 -13 5 -11 0 -14 -3 -6 -6z"/>
<path d="M1108 1033 c7 -3 16 -2 19 1 4 3 -2 6 -13 5 -11 0 -14 -3 -6 -6z"/>
<path d="M878 1003 c6 -2 18 -2 25 0 6 3 1 5 -13 5 -14 0 -19 -2 -12 -5z"/>
</g>
</svg>
